<svg width="140" height="33" viewBox="0 0 140 33" fill="none" xmlns="http://www.w3.org/2000/svg">
<g clip-path="url(#clip0_273_667)">
<path d="M66.8792 14.6855H57.5962C57.2172 14.6855 56.8537 14.8378 56.5857 15.1089C56.3177 15.3801 56.1671 15.7478 56.1671 16.1312V16.8512C56.1671 17.2346 56.3177 17.6023 56.5857 17.8735C56.8537 18.1446 57.2172 18.2969 57.5962 18.2969H64.8614C64.4688 19.8413 63.5824 21.211 62.3403 22.1927C61.0983 23.1745 59.5701 23.7131 57.9939 23.7249C56.4177 23.7366 54.882 23.2207 53.6257 22.2576C52.3695 21.2944 51.4633 19.938 51.0483 18.3997C50.6333 16.8613 50.7328 15.2273 51.3312 13.752C51.9296 12.2768 52.9935 11.0432 54.357 10.2432C55.7206 9.44327 57.3073 9.12191 58.8702 9.32919C60.433 9.53647 61.8843 10.2608 62.9979 11.3893L63.2494 11.6437C63.5173 11.9139 63.8801 12.0655 64.2583 12.0655C64.6366 12.0655 64.9994 11.9139 65.2672 11.6437L65.7703 11.1348C66.0373 10.8638 66.1872 10.4968 66.1872 10.1141C66.1872 9.73148 66.0373 9.36445 65.7703 9.09345L65.5188 8.839C63.773 7.0771 61.4801 5.9781 59.0267 5.72731C56.5732 5.47652 54.1094 6.08929 52.0505 7.46229C49.9917 8.83529 48.4638 10.8845 47.7245 13.2645C46.9852 15.6444 47.0797 18.2095 47.9921 20.5271C48.9044 22.8448 50.5789 24.7733 52.7331 25.9874C54.8872 27.2015 57.3894 27.627 59.8175 27.1922C62.2457 26.7573 64.4514 25.4887 66.0626 23.6002C67.6739 21.7117 68.5922 19.3188 68.6626 16.8252C68.6626 16.7134 68.6626 16.6016 68.6626 16.4898C68.6626 16.0112 68.4747 15.5523 68.1403 15.214C67.8058 14.8756 67.3522 14.6855 66.8792 14.6855Z" fill="#292929"/>
<path d="M89.2179 21.0148C88.9389 20.7559 88.5696 20.6195 88.1913 20.6358C87.813 20.6521 87.4565 20.8196 87.2001 21.1016L86.9601 21.3676C86.0064 22.4234 84.7647 23.1693 83.3919 23.5109C82.0191 23.8525 80.577 23.7745 79.248 23.2866C77.9191 22.7988 76.7631 21.9231 75.9263 20.7703C75.0895 19.6176 74.6095 18.2396 74.547 16.8108C74.4846 15.382 74.8425 13.9665 75.5755 12.7436C76.3085 11.5206 77.3837 10.5451 78.6649 9.94054C79.9461 9.33597 81.3757 9.12948 82.773 9.3472C84.1702 9.56493 85.4722 10.1971 86.5142 11.1637C86.6019 11.2446 86.6866 11.3275 86.7686 11.4123L86.9944 11.6408C87.2622 11.9109 87.625 12.0626 88.0033 12.0626C88.3815 12.0626 88.7443 11.9109 89.0122 11.6408L89.5152 11.1319C89.7822 10.8609 89.9322 10.4938 89.9322 10.1112C89.9322 9.72855 89.7822 9.36151 89.5152 9.09051L89.2637 8.83607C87.7524 7.30818 85.8238 6.27279 83.7259 5.8632C81.6281 5.4536 79.4571 5.68853 77.4924 6.53775C75.5276 7.38696 73.8591 8.8116 72.7015 10.6283C71.5438 12.445 70.9501 14.5706 70.9967 16.7316C71.0433 18.8926 71.7281 20.99 72.9629 22.7539C74.1978 24.5178 75.9261 25.8675 77.9256 26.6292C79.9251 27.3909 82.1041 27.5298 84.1823 27.0281C86.2605 26.5263 88.1427 25.4068 89.5866 23.8137L89.8267 23.5477C90.0827 23.2654 90.2174 22.8918 90.2013 22.5091C90.1853 22.1263 90.0197 21.7657 89.741 21.5064L89.2179 21.0148Z" fill="#292929"/>
<path d="M106.363 11.1698H105.663C105.284 11.1698 104.921 11.3222 104.653 11.5933C104.385 11.8644 104.234 12.2321 104.234 12.6156V12.9307C103.019 11.8287 101.455 11.2022 99.824 11.1641C97.708 11.1641 95.6787 12.0144 94.1825 13.5281C92.6863 15.0418 91.8457 17.0948 91.8457 19.2355C91.8457 21.3762 92.6863 23.4292 94.1825 24.9429C95.6787 26.4566 97.708 27.307 99.824 27.307C101.442 27.2719 102.999 26.6757 104.234 25.6184V25.8584C104.234 26.2418 104.385 26.6095 104.653 26.8806C104.921 27.1518 105.284 27.3041 105.663 27.3041H106.363C106.742 27.3041 107.106 27.1518 107.374 26.8806C107.642 26.6095 107.792 26.2418 107.792 25.8584V12.6214C107.793 12.431 107.757 12.2424 107.685 12.0663C107.614 11.8903 107.509 11.7302 107.376 11.5953C107.243 11.4605 107.085 11.3535 106.911 11.2804C106.738 11.2074 106.551 11.1698 106.363 11.1698ZM104.22 19.5319C104.148 20.6893 103.633 21.773 102.785 22.5535C101.938 23.334 100.823 23.75 99.6769 23.7136C98.5311 23.6772 97.4443 23.1911 96.6466 22.3582C95.8488 21.5254 95.4027 20.4112 95.4027 19.2514C95.4027 18.0917 95.8488 16.9775 96.6466 16.1446C97.4443 15.3118 98.5311 14.8257 99.6769 14.7892C100.823 14.7528 101.938 15.1689 102.785 15.9493C103.633 16.7298 104.148 17.8135 104.22 18.9709C104.231 19.1577 104.231 19.3451 104.22 19.5319Z" fill="#292929"/>
<path d="M139.091 14.9893C137.845 12.4651 135.487 11.0772 132.454 11.0772C131.713 11.0531 130.975 11.1886 130.289 11.4747C129.603 11.7608 128.985 12.191 128.476 12.7369V6.95402C128.476 6.57059 128.325 6.20286 128.057 5.93174C127.789 5.66061 127.426 5.5083 127.047 5.5083H126.326C125.947 5.5083 125.584 5.66061 125.316 5.93174C125.048 6.20286 124.897 6.57059 124.897 6.95402V25.8814C124.897 26.2648 125.048 26.6325 125.316 26.9037C125.584 27.1748 125.947 27.3271 126.326 27.3271H127.038C127.417 27.3271 127.781 27.1748 128.049 26.9037C128.317 26.6325 128.467 26.2648 128.467 25.8814V18.7135C128.506 17.9817 128.688 17.265 129.005 16.6056C129.648 15.2987 130.748 14.6886 132.451 14.6886C134.155 14.6886 135.201 15.2669 135.855 16.5189C136.196 17.2049 136.391 17.9554 136.427 18.7222V25.8756C136.427 26.259 136.577 26.6268 136.845 26.8979C137.113 27.169 137.477 27.3213 137.856 27.3213H138.571C138.95 27.3213 139.313 27.169 139.581 26.8979C139.849 26.6268 140 26.259 140 25.8756V18.7164C139.965 17.4224 139.655 16.1511 139.091 14.9893Z" fill="#292929"/>
<path d="M120.916 19.1905C119.933 18.271 118.513 17.6898 116.692 17.4556C115.297 17.2822 114.692 16.8774 114.452 16.6576C114.325 16.544 114.23 16.3987 114.176 16.2363C114.123 16.074 114.112 15.9001 114.146 15.7323C114.209 15.1078 115.003 14.4861 116.635 14.6076C117.432 14.6654 118.887 15.368 119.207 15.5704L119.513 15.7584C119.833 15.9573 120.217 16.0209 120.583 15.9354C120.949 15.8499 121.267 15.6222 121.468 15.3015L121.842 14.6856C122.041 14.3603 122.104 13.9686 122.018 13.5963C121.932 13.224 121.703 12.9015 121.382 12.6992L121.079 12.5113C121.057 12.5113 118.793 11.1696 116.898 11.0251C115.22 10.9007 113.728 11.2593 112.588 12.0602C112.018 12.4542 111.544 12.9725 111.198 13.5769C110.853 14.1813 110.647 14.8563 110.594 15.5523C110.541 16.2482 110.643 16.9473 110.893 17.598C111.142 18.2487 111.533 18.8344 112.036 19.3119C113.02 20.2314 114.44 20.8155 116.261 21.0468C117.655 21.2203 118.261 21.6251 118.501 21.842C118.628 21.9554 118.723 22.1006 118.777 22.2631C118.831 22.4255 118.841 22.5994 118.807 22.7672C118.744 23.3947 117.95 24.0134 116.318 23.8949C115.52 23.8342 114.066 23.1344 113.746 22.932L113.44 22.7441C113.117 22.5452 112.73 22.4837 112.362 22.5731C111.995 22.6625 111.677 22.8955 111.479 23.2212L111.108 23.837C110.91 24.1635 110.848 24.5559 110.936 24.9283C111.024 25.3007 111.254 25.6226 111.576 25.8235L111.882 26.0114C111.905 26.0114 114.169 27.3559 116.063 27.4976C116.279 27.513 116.493 27.5207 116.707 27.5207C118.007 27.5561 119.287 27.1867 120.373 26.4625C120.946 26.069 121.423 25.5502 121.77 24.9446C122.117 24.339 122.325 23.6622 122.378 22.9643C122.431 22.2664 122.329 21.5653 122.078 20.913C121.827 20.2607 121.434 19.674 120.928 19.1963L120.916 19.1905Z" fill="#292929"/>
<path d="M34.9338 16.4986C34.9421 19.4609 34.2565 22.383 32.9332 25.0255C32.7194 25.4469 32.6692 25.9339 32.7924 26.3909C32.9156 26.8478 33.2034 27.2416 33.5991 27.4948C34.0163 27.7623 34.5212 27.8517 35.0034 27.7433C35.4855 27.6349 35.9055 27.3376 36.1714 26.9165C36.2019 26.8683 36.2295 26.8191 36.2543 26.769C37.8462 23.5922 38.6758 20.0806 38.6758 16.5189C38.6758 12.9571 37.8462 9.44554 36.2543 6.26872C36.0268 5.82324 35.6338 5.48739 35.1616 5.33503C34.6894 5.18266 34.1767 5.22626 33.7363 5.45622L33.5934 5.54007C33.1984 5.79315 32.9111 6.18642 32.7879 6.6427C32.6647 7.09899 32.7145 7.58538 32.9275 8.00647C34.2472 10.6381 34.9346 13.5477 34.9338 16.4986Z" fill="#51C1FF"/>
<path d="M28.8839 16.4985C28.8881 18.3347 28.4981 20.15 27.7407 21.8187C27.5509 22.2362 27.5175 22.7092 27.6469 23.1496C27.7762 23.5901 28.0594 23.968 28.4438 24.2128C28.67 24.3579 28.9244 24.4522 29.1897 24.4894C29.455 24.5266 29.7251 24.5059 29.9818 24.4287C30.2386 24.3514 30.4759 24.2194 30.678 24.0415C30.8801 23.8636 31.0421 23.644 31.1532 23.3974C32.1297 21.2337 32.6351 18.8829 32.6351 16.5043C32.6351 14.1256 32.1297 11.7748 31.1532 9.61106C31.0419 9.36575 30.8802 9.14728 30.6788 8.97027C30.4774 8.79325 30.241 8.66175 29.9853 8.58457C29.7297 8.50739 29.4607 8.4863 29.1963 8.5227C28.9319 8.55911 28.6783 8.65217 28.4523 8.79567C28.068 9.04054 27.7848 9.4184 27.6554 9.85887C27.5261 10.2993 27.5594 10.7723 27.7493 11.1898C28.5021 12.8557 28.8892 14.6668 28.8839 16.4985Z" fill="#51C1FF"/>
<path d="M16.3083 29.218C14.3088 29.2176 12.3383 28.7348 10.5601 27.8097C8.78196 26.8846 7.24747 25.544 6.08396 23.8989C4.92044 22.2538 4.16144 20.3518 3.86992 18.3506C3.5784 16.3494 3.76276 14.3067 4.40771 12.392C5.05266 10.4773 6.13961 8.74574 7.57838 7.34105C9.01715 5.93637 10.7663 4.899 12.6806 4.31502C14.595 3.73105 16.6194 3.6173 18.5859 3.98321C20.5524 4.34912 22.4043 5.18414 23.988 6.419C24.3471 6.70149 24.7958 6.84177 25.2498 6.81356C25.7039 6.78535 26.1322 6.59058 26.4545 6.26576C26.6421 6.07597 26.7876 5.84789 26.8813 5.59672C26.9749 5.34555 27.0145 5.07707 26.9975 4.80918C26.9804 4.5413 26.9071 4.28016 26.7825 4.04321C26.6578 3.80625 26.4846 3.59892 26.2744 3.43503C23.8598 1.54945 20.971 0.386499 17.936 0.0781916C14.901 -0.230116 11.8413 0.328577 9.10432 1.69084C6.36734 3.05311 4.0627 5.16438 2.45202 7.78497C0.841346 10.4056 -0.0108445 13.4305 -0.00780439 16.5164C-0.00476425 19.6023 0.853386 22.6255 2.46922 25.2428C4.08506 27.8602 6.39386 29.9668 9.13351 31.3236C11.8732 32.6803 14.9339 33.2328 17.9683 32.9184C21.0027 32.604 23.8892 31.4352 26.3001 29.5447C26.506 29.3829 26.6755 29.1786 26.7975 28.9454C26.9194 28.7122 26.991 28.4555 27.0075 28.1923C27.024 27.929 26.985 27.6652 26.8931 27.4183C26.8012 27.1715 26.6585 26.9472 26.4745 26.7603L26.4345 26.7198C26.1158 26.4025 25.694 26.2132 25.2476 26.1871C24.8012 26.161 24.3606 26.3 24.008 26.5781C21.803 28.2998 19.0936 29.2287 16.3083 29.218Z" fill="#007CFF"/>
<path d="M26.337 15.1136C25.9772 14.7461 25.4879 14.5381 24.9766 14.5353H16.0165C15.7564 14.5252 15.4969 14.5683 15.2536 14.662C15.0102 14.7558 14.7881 14.8982 14.6005 15.0809C14.4129 15.2635 14.2637 15.4826 14.1618 15.7249C14.0598 15.9673 14.0073 16.228 14.0073 16.4914C14.0073 16.7548 14.0598 17.0155 14.1618 17.2578C14.2637 17.5002 14.4129 17.7193 14.6005 17.9019C14.7881 18.0845 15.0102 18.227 15.2536 18.3207C15.4969 18.4145 15.7564 18.4576 16.0165 18.4474H22.7587C22.3505 19.8083 21.5308 21.0055 20.415 21.8705C19.2991 22.7355 17.9433 23.2248 16.5383 23.2697C15.1332 23.3145 13.7496 22.9126 12.5821 22.1205C11.4146 21.3284 10.5219 20.1859 10.0297 18.8538C9.53742 17.5216 9.47036 16.0669 9.83793 14.6942C10.2055 13.3215 10.9892 12.0999 12.0788 11.2013C13.1684 10.3027 14.509 9.7723 15.9121 9.68467C17.3152 9.59704 18.7101 9.95663 19.9007 10.7128C20.274 10.9471 20.7149 11.046 21.1511 10.9935C21.5873 10.941 21.9929 10.7401 22.3014 10.4237C22.5049 10.2172 22.6601 9.96727 22.7555 9.69219C22.851 9.4171 22.8843 9.12388 22.853 8.83406C22.8218 8.54423 22.7268 8.26518 22.5749 8.01739C22.4231 7.7696 22.2183 7.55936 21.9756 7.40214C19.6114 5.89882 16.7591 5.39229 14.0302 5.99111C12.0378 6.41833 10.2124 7.42542 8.77836 8.88849C7.34436 10.3516 6.36438 12.2068 5.95897 14.2259C5.64831 15.6955 5.64648 17.2146 5.9536 18.6849C6.26071 20.1552 6.86991 21.5438 7.74168 22.7605C8.61345 23.9772 9.72832 24.995 11.014 25.7477C12.2996 26.5004 13.7273 26.9713 15.2044 27.1299C16.6815 27.2884 18.1751 27.131 19.5882 26.6679C21.0013 26.2048 22.3025 25.4463 23.4072 24.4417C24.5118 23.4371 25.3955 22.2087 26.0006 20.8364C26.6058 19.464 26.9191 17.9782 26.9201 16.4755C26.9097 15.9618 26.7003 15.4727 26.337 15.1136Z" fill="#002CB8"/>
</g>
<defs>
<clipPath id="clip0_273_667">
<rect width="140" height="33" fill="white"/>
</clipPath>
</defs>
</svg>
