<svg width="208" height="48" viewBox="0 0 208 48" fill="none" xmlns="http://www.w3.org/2000/svg">
<g clip-path="url(#clip0_273_656)">
<path d="M99.3628 21.361H85.5709C85.0078 21.361 84.4678 21.5825 84.0696 21.9769C83.6714 22.3713 83.4477 22.9061 83.4477 23.4638V24.5111C83.4477 25.0688 83.6714 25.6037 84.0696 25.998C84.4678 26.3924 85.0078 26.6139 85.5709 26.6139H96.365C95.7817 28.8603 94.4648 30.8526 92.6194 32.2806C90.774 33.7086 88.5036 34.4921 86.1619 34.5092C83.8201 34.5262 81.5383 33.7758 79.6719 32.3749C77.8055 30.9739 76.4592 29.0011 75.8426 26.7634C75.2261 24.5258 75.3738 22.149 76.2629 20.0032C77.152 17.8574 78.7326 16.063 80.7584 14.8995C82.7843 13.7359 85.1417 13.2685 87.4637 13.57C89.7857 13.8715 91.9418 14.925 93.5964 16.5665L93.97 16.9366C94.368 17.3295 94.907 17.5501 95.469 17.5501C96.0309 17.5501 96.5699 17.3295 96.9679 16.9366L97.7153 16.1963C98.112 15.8022 98.3348 15.2683 98.3348 14.7117C98.3348 14.1552 98.112 13.6213 97.7153 13.2271L97.3416 12.857C94.7479 10.2942 91.3413 8.69568 87.6962 8.3309C84.0511 7.96611 80.3905 8.85741 77.3317 10.8545C74.2728 12.8516 72.0028 15.8323 70.9044 19.294C69.806 22.7558 69.9464 26.4868 71.3019 29.8579C72.6575 33.2291 75.1452 36.0341 78.3457 37.8001C81.5462 39.5661 85.2636 40.1851 88.8712 39.5525C92.4788 38.92 95.7557 37.0747 98.1496 34.3278C100.543 31.5809 101.908 28.1004 102.013 24.4732C102.013 24.3106 102.013 24.148 102.013 23.9854C102.013 23.2893 101.733 22.6218 101.236 22.1297C100.74 21.6375 100.066 21.361 99.3628 21.361Z" fill="white"/>
<path d="M132.552 30.5673C132.137 30.1906 131.589 29.9923 131.027 30.016C130.465 30.0396 129.935 30.2833 129.554 30.6934L129.197 31.0804C127.781 32.6161 125.936 33.7011 123.896 34.198C121.856 34.6949 119.714 34.5813 117.739 33.8717C115.765 33.1621 114.048 31.8884 112.804 30.2117C111.561 28.5349 110.848 26.5306 110.755 24.4523C110.662 22.374 111.194 20.3152 112.283 18.5364C113.372 16.7575 114.97 15.3386 116.873 14.4592C118.777 13.5799 120.901 13.2795 122.977 13.5962C125.052 13.9129 126.987 14.8324 128.535 16.2383C128.665 16.3561 128.791 16.4767 128.913 16.6L129.248 16.9323C129.646 17.3252 130.185 17.5459 130.747 17.5459C131.309 17.5459 131.848 17.3252 132.246 16.9323L132.994 16.1921C133.39 15.7979 133.613 15.264 133.613 14.7075C133.613 14.1509 133.39 13.617 132.994 13.2228L132.62 12.8527C130.375 10.6303 127.509 9.12433 124.392 8.52855C121.276 7.93278 118.05 8.27449 115.131 9.50972C112.212 10.7449 109.733 12.8171 108.013 15.4596C106.293 18.1021 105.411 21.1939 105.48 24.3371C105.55 27.4804 106.567 30.5311 108.402 33.0968C110.236 35.6625 112.804 37.6257 115.775 38.7336C118.745 39.8416 121.983 40.0437 125.07 39.3138C128.158 38.584 130.954 36.9557 133.1 34.6384L133.456 34.2515C133.837 33.8408 134.037 33.2975 134.013 32.7408C133.989 32.184 133.743 31.6594 133.329 31.2822L132.552 30.5673Z" fill="white"/>
<path d="M158.025 16.2467H156.985C156.422 16.2467 155.882 16.4682 155.483 16.8626C155.085 17.257 154.862 17.7918 154.862 18.3496V18.808C153.057 17.2051 150.733 16.2937 148.31 16.2383C145.166 16.2383 142.151 17.4752 139.928 19.6769C137.705 21.8787 136.456 24.8649 136.456 27.9786C136.456 31.0923 137.705 34.0785 139.928 36.2802C142.151 38.4819 145.166 39.7189 148.31 39.7189C150.713 39.6678 153.026 38.8007 154.862 37.2627V37.6118C154.862 38.1695 155.085 38.7044 155.483 39.0988C155.882 39.4931 156.422 39.7147 156.985 39.7147H158.025C158.588 39.7147 159.128 39.4931 159.526 39.0988C159.925 38.7044 160.148 38.1695 160.148 37.6118V18.358C160.149 18.0811 160.095 17.8068 159.989 17.5507C159.883 17.2946 159.727 17.0617 159.529 16.8656C159.332 16.6694 159.098 16.5138 158.84 16.4076C158.581 16.3014 158.305 16.2467 158.025 16.2467ZM154.84 28.4097C154.733 30.0932 153.969 31.6695 152.709 32.8047C151.45 33.94 149.793 34.5452 148.091 34.4921C146.389 34.4391 144.774 33.7321 143.589 32.5207C142.404 31.3093 141.741 29.6886 141.741 28.0017C141.741 26.3148 142.404 24.6941 143.589 23.4827C144.774 22.2713 146.389 21.5643 148.091 21.5113C149.793 21.4583 151.45 22.0634 152.709 23.1987C153.969 24.334 154.733 25.9102 154.84 27.5938C154.858 27.8655 154.858 28.138 154.84 28.4097Z" fill="white"/>
<path d="M206.65 21.8023C204.798 18.1307 201.295 16.112 196.79 16.112C195.688 16.0769 194.591 16.2739 193.572 16.6901C192.553 17.1063 191.635 17.7321 190.879 18.526V10.1146C190.879 9.55687 190.655 9.02199 190.257 8.62763C189.859 8.23326 189.319 8.01172 188.756 8.01172H187.686C187.123 8.01172 186.583 8.23326 186.184 8.62763C185.786 9.02199 185.562 9.55687 185.562 10.1146V37.6453C185.562 38.203 185.786 38.7379 186.184 39.1322C186.583 39.5266 187.123 39.7482 187.686 39.7482H188.743C189.306 39.7482 189.846 39.5266 190.244 39.1322C190.642 38.7379 190.866 38.203 190.866 37.6453V27.2193C190.923 26.1548 191.194 25.1123 191.664 24.1533C192.62 22.2523 194.255 21.3649 196.785 21.3649C199.316 21.3649 200.87 22.2061 201.843 24.0271C202.349 25.0249 202.638 26.1166 202.692 27.2319V37.6369C202.692 38.1946 202.916 38.7295 203.314 39.1238C203.712 39.5182 204.252 39.7398 204.815 39.7398H205.877C206.44 39.7398 206.98 39.5182 207.378 39.1238C207.776 38.7295 208 38.1946 208 37.6369V27.2235C207.948 25.3413 207.488 23.4922 206.65 21.8023Z" fill="white"/>
<path d="M179.648 27.9135C178.187 26.5761 176.077 25.7307 173.372 25.3901C171.3 25.1377 170.4 24.5489 170.043 24.2293C169.855 24.064 169.714 23.8527 169.634 23.6165C169.554 23.3803 169.539 23.1275 169.589 22.8834C169.682 21.975 170.862 21.0708 173.287 21.2474C174.472 21.3315 176.633 22.3535 177.109 22.6479L177.563 22.9213C178.038 23.2106 178.609 23.3031 179.153 23.1788C179.696 23.0545 180.169 22.7232 180.467 22.2568L181.024 21.361C181.319 20.8877 181.412 20.318 181.284 19.7765C181.156 19.235 180.817 18.7658 180.34 18.4716L179.89 18.1983C179.856 18.1983 176.493 16.2468 173.678 16.0365C171.185 15.8557 168.969 16.3772 167.274 17.5422C166.428 18.1152 165.723 18.8691 165.21 19.7482C164.697 20.6273 164.39 21.6092 164.311 22.6215C164.233 23.6338 164.384 24.6507 164.755 25.5972C165.126 26.5437 165.707 27.3956 166.455 28.0901C167.915 29.4276 170.026 30.2771 172.731 30.6136C174.803 30.8659 175.703 31.4547 176.06 31.7702C176.248 31.9351 176.39 32.1464 176.469 32.3827C176.549 32.619 176.565 32.8719 176.514 33.116C176.421 34.0286 175.24 34.9287 172.816 34.7562C171.631 34.6679 169.47 33.6501 168.994 33.3557L168.54 33.0823C168.06 32.793 167.484 32.7036 166.939 32.8336C166.393 32.9637 165.921 33.3026 165.627 33.7763L165.075 34.6721C164.781 35.1469 164.689 35.7177 164.82 36.2594C164.95 36.8011 165.292 37.2693 165.771 37.5615L166.225 37.8348C166.259 37.8348 169.622 39.7905 172.438 39.9966C172.758 40.019 173.076 40.0302 173.393 40.0302C175.325 40.0817 177.227 39.5444 178.841 38.4909C179.691 37.9185 180.4 37.164 180.916 36.2831C181.432 35.4023 181.741 34.4178 181.82 33.4027C181.899 32.3875 181.746 31.3678 181.373 30.419C181 29.4702 180.416 28.6168 179.665 27.9219L179.648 27.9135Z" fill="white"/>
<path d="M51.9019 23.9979C51.9141 28.3067 50.8955 32.557 48.9295 36.4006C48.6118 37.0135 48.5372 37.722 48.7203 38.3867C48.9034 39.0513 49.3309 39.6241 49.9189 39.9923C50.5386 40.3815 51.2888 40.5115 52.0052 40.3538C52.7215 40.1962 53.3455 39.7637 53.7405 39.1512C53.7858 39.0811 53.8269 39.0096 53.8637 38.9367C56.2288 34.3158 57.4613 29.208 57.4613 24.0274C57.4613 18.8467 56.2288 13.7389 53.8637 9.11805C53.5257 8.47008 52.9418 7.98157 52.2402 7.75995C51.5387 7.53833 50.777 7.60174 50.1227 7.93624L49.9104 8.05819C49.3235 8.42632 48.8967 8.99834 48.7137 9.66203C48.5306 10.3257 48.6046 11.0332 48.921 11.6457C50.8817 15.4736 51.903 19.7056 51.9019 23.9979Z" fill="#51C1FF"/>
<path d="M42.913 23.9979C42.9193 26.6688 42.3398 29.3092 41.2145 31.7365C40.9325 32.3436 40.883 33.0317 41.0751 33.6723C41.2673 34.313 41.6881 34.8626 42.2591 35.2188C42.5953 35.4298 42.9731 35.5669 43.3673 35.6211C43.7615 35.6752 44.1628 35.6451 44.5442 35.5327C44.9257 35.4203 45.2784 35.2283 45.5786 34.9696C45.8788 34.7109 46.1195 34.3914 46.2846 34.0328C47.7354 30.8855 48.4863 27.4661 48.4863 24.0063C48.4863 20.5465 47.7354 17.1271 46.2846 13.9799C46.1193 13.623 45.879 13.3053 45.5797 13.0478C45.2805 12.7903 44.9292 12.599 44.5494 12.4868C44.1696 12.3745 43.7699 12.3438 43.3772 12.3968C42.9844 12.4497 42.6076 12.5851 42.2718 12.7938C41.7008 13.15 41.2801 13.6996 41.0879 14.3403C40.8957 14.981 40.9452 15.669 41.2273 16.2762C42.3457 18.6993 42.9209 21.3336 42.913 23.9979Z" fill="#51C1FF"/>
<path d="M24.2294 42.499C21.2587 42.4983 18.331 41.7961 15.6892 40.4505C13.0474 39.105 10.7676 37.1549 9.03891 34.7621C7.31026 32.3692 6.1826 29.6026 5.74948 26.6918C5.31636 23.7809 5.59027 20.8097 6.54848 18.0247C7.5067 15.2397 9.1216 12.7211 11.2592 10.6779C13.3968 8.63476 15.9955 7.12586 18.8397 6.27644C21.6838 5.42702 24.6915 5.26158 27.6132 5.79381C30.5348 6.32604 33.2862 7.54062 35.6391 9.33677C36.1727 9.74766 36.8393 9.95171 37.5139 9.91067C38.1885 9.86964 38.8249 9.58634 39.3037 9.11387C39.5825 8.83782 39.7987 8.50607 39.9378 8.14073C40.0769 7.77539 40.1358 7.38487 40.1104 6.99522C40.0851 6.60557 39.9762 6.22574 39.791 5.88108C39.6057 5.53641 39.3484 5.23484 39.0362 4.99646C35.4487 2.25379 31.1568 0.562225 26.6476 0.113778C22.1385 -0.33467 17.5927 0.477975 13.5263 2.45945C9.45994 4.44093 6.0359 7.51186 3.64289 11.3236C1.24989 15.1354 -0.0162235 19.5353 -0.0117067 24.0239C-0.00718992 28.5125 1.26778 32.9099 3.66845 36.7169C6.06912 40.524 9.49933 43.5881 13.5697 45.5616C17.64 47.535 22.1874 48.3387 26.6957 47.8813C31.204 47.424 35.4925 45.724 39.0744 42.9742C39.3803 42.7387 39.6321 42.4416 39.8133 42.1024C39.9945 41.7633 40.1008 41.3899 40.1253 41.007C40.1498 40.624 40.0919 40.2403 39.9554 39.8812C39.8188 39.5222 39.6068 39.1959 39.3334 38.9241L39.274 38.8652C38.8005 38.4036 38.1738 38.1283 37.5106 38.0904C36.8473 38.0524 36.1928 38.2546 35.6689 38.6591C32.3929 41.1634 28.3676 42.5145 24.2294 42.499Z" fill="#007CFF"/>
<path d="M39.1291 21.9831C38.5945 21.4485 37.8675 21.146 37.1079 21.142H23.7957C23.4092 21.1273 23.0237 21.1899 22.6622 21.3263C22.3007 21.4626 21.9707 21.6699 21.692 21.9355C21.4133 22.2012 21.1915 22.5198 21.0401 22.8723C20.8886 23.2249 20.8105 23.604 20.8105 23.9871C20.8105 24.3703 20.8886 24.7495 21.0401 25.102C21.1915 25.4545 21.4133 25.7732 21.692 26.0388C21.9707 26.3045 22.3007 26.5117 22.6622 26.648C23.0237 26.7844 23.4092 26.8471 23.7957 26.8323H33.8127C33.2062 28.8118 31.9883 30.5531 30.3305 31.8113C28.6727 33.0695 26.6584 33.7813 24.5709 33.8465C22.4834 33.9118 20.4277 33.3272 18.6931 32.175C16.9586 31.0228 15.6323 29.361 14.901 27.4234C14.1696 25.4857 14.07 23.3697 14.6161 21.3731C15.1622 19.3764 16.3266 17.5996 17.9454 16.2925C19.5642 14.9855 21.556 14.2139 23.6406 14.0865C25.7251 13.959 27.7976 14.4821 29.5664 15.582C30.1211 15.9227 30.7761 16.0667 31.4242 15.9903C32.0723 15.9138 32.6749 15.6216 33.1333 15.1614C33.4356 14.8611 33.6661 14.4975 33.808 14.0974C33.9498 13.6973 33.9993 13.2708 33.9528 12.8492C33.9064 12.4277 33.7652 12.0218 33.5396 11.6613C33.314 11.3009 33.0098 10.9951 32.6492 10.7664C29.1367 8.5798 24.899 7.84303 20.8446 8.71404C17.8845 9.33544 15.1724 10.8003 13.0419 12.9284C10.9114 15.0565 9.4554 17.755 8.85307 20.692C8.39152 22.8294 8.38881 25.0392 8.84509 27.1778C9.30138 29.3164 10.2065 31.3361 11.5017 33.1059C12.7969 34.8757 14.4532 36.356 16.3633 37.4509C18.2734 38.5458 20.3946 39.2307 22.5891 39.4613C24.7837 39.6919 27.0028 39.4629 29.1023 38.7893C31.2017 38.1157 33.1348 37.0125 34.7761 35.5513C36.4174 34.09 37.7301 32.3033 38.6293 30.3071C39.5284 28.3109 39.9938 26.1498 39.9953 23.964C39.9798 23.2168 39.6688 22.5055 39.1291 21.9831Z" fill="#002CB8"/>
</g>
<defs>
<clipPath id="clip0_273_656">
<rect width="208" height="48" fill="white"/>
</clipPath>
</defs>
</svg>
